<svg xmlns="http://www.w3.org/2000/svg" width="600" height="750" viewBox="0 0 600 750" role="img" aria-label="Here is $5 — placeholder email creative"><rect width="600" height="750" fill="#faf6ef"/><rect x="0" y="0" width="600" height="56" fill="#12161d"/><text x="22" y="35" font-family="Inter, sans-serif" font-size="17" font-weight="800" letter-spacing="1.4" fill="#e8c07d">ELITE PIZZA</text><text x="578" y="35" text-anchor="end" font-family="Inter, sans-serif" font-size="11" fill="#faf6ef" opacity="0.6">Menu   Deals   Locations</text><rect x="0" y="56" width="600" height="214" fill="#26313f"/><circle cx="492" cy="146" r="77" fill="#e8543f" opacity="0.18"/><text x="26" y="90" font-family="Inter, sans-serif" font-size="11" font-weight="700" letter-spacing="2" fill="#5fb87a">WE MISS YOU</text><text x="26" y="150" font-family="Inter, sans-serif" font-size="40" font-weight="800" fill="#e8c07d">Here is $5</text><text x="26" y="184" font-family="Inter, sans-serif" font-size="15" fill="#faf6ef" opacity="0.8">On your next order, any size</text><rect x="26" y="206" width="196" height="44" rx="4" fill="#e8543f"/><text x="124" y="234" text-anchor="middle" font-family="Inter, sans-serif" font-size="14" font-weight="700" fill="#ffffff">Redeem $5</text><rect x="0" y="270" width="600" height="180" fill="#faf6ef"/><text x="26" y="300" font-family="Inter, sans-serif" font-size="11" font-weight="700" letter-spacing="2" fill="#12161d" opacity="0.55">TONIGHT’S PICKS</text><rect x="26" y="314" width="173" height="120" rx="5" fill="#ece5d8"/><circle cx="113" cy="362" r="29" fill="#e8c07d"/><circle cx="113" cy="362" r="20" fill="#e8543f" opacity="0.75"/><text x="113" y="405" text-anchor="middle" font-family="Inter, sans-serif" font-size="12" font-weight="700" fill="#12161d">Margherita</text><text x="113" y="424" text-anchor="middle" font-family="Inter, sans-serif" font-size="11" fill="#12161d" opacity="0.6">Order</text><rect x="213" y="314" width="173" height="120" rx="5" fill="#ece5d8"/><circle cx="300" cy="362" r="29" fill="#e8c07d"/><circle cx="300" cy="362" r="20" fill="#e8543f" opacity="0.75"/><text x="300" y="405" text-anchor="middle" font-family="Inter, sans-serif" font-size="12" font-weight="700" fill="#12161d">Pepperoni</text><text x="300" y="424" text-anchor="middle" font-family="Inter, sans-serif" font-size="11" fill="#12161d" opacity="0.6">Order</text><rect x="401" y="314" width="173" height="120" rx="5" fill="#ece5d8"/><circle cx="487" cy="362" r="29" fill="#e8c07d"/><circle cx="487" cy="362" r="20" fill="#e8543f" opacity="0.75"/><text x="487" y="405" text-anchor="middle" font-family="Inter, sans-serif" font-size="12" font-weight="700" fill="#12161d">Veggie</text><text x="487" y="424" text-anchor="middle" font-family="Inter, sans-serif" font-size="11" fill="#12161d" opacity="0.6">Order</text><rect x="0" y="450" width="600" height="142" fill="#f1e7d5"/><rect x="26" y="468" width="548" height="106" rx="6" fill="none" stroke="#e8543f" stroke-width="2" stroke-dasharray="7 6"/><text x="46" y="510" font-family="Inter, sans-serif" font-size="19" font-weight="800" fill="#12161d">$5 off, expires Sunday</text><text x="46" y="541" font-family="ui-monospace, monospace" font-size="13" fill="#12161d" opacity="0.65">CODE MISSYOU</text><rect x="400" y="501" width="154" height="40" rx="4" fill="#12161d"/><text x="477" y="526" text-anchor="middle" font-family="Inter, sans-serif" font-size="13" font-weight="700" fill="#e8c07d">Use my $5</text><rect x="0" y="592" width="600" height="158" fill="#12161d"/><text x="300" y="640" text-anchor="middle" font-family="Inter, sans-serif" font-size="14" font-weight="700" fill="#e8c07d">Find your nearest shop</text><circle cx="266" cy="679" r="11" fill="#faf6ef" opacity="0.18"/><circle cx="300" cy="679" r="11" fill="#faf6ef" opacity="0.18"/><circle cx="334" cy="679" r="11" fill="#faf6ef" opacity="0.18"/><text x="300" y="725" text-anchor="middle" font-family="Inter, sans-serif" font-size="10" fill="#faf6ef" opacity="0.45">Unsubscribe   ·   Preferences   ·   View in browser</text><text x="594" y="744" text-anchor="end" font-family="ui-monospace, monospace" font-size="8" fill="#faf6ef" opacity="0.35">ELITE PIZZA · 600x750</text></svg>
